<svg width="24" height="16" viewBox="0 0 24 16" fill="none" xmlns="http://www.w3.org/2000/svg">
<path d="M21.1597 0.1875H2.84375C1.76463 0.1875 0.890625 1.06693 0.890625 2.14062V13.8594C0.890625 14.9395 1.77105 15.8125 2.84375 15.8125H21.1597C22.2298 15.8125 23.1128 14.9431 23.1128 13.8594V2.14062C23.1128 1.06884 22.2423 0.1875 21.1597 0.1875ZM20.8862 1.48958C20.4872 1.8865 13.6199 8.71758 13.3828 8.95343C13.0139 9.32235 12.5234 9.52548 12.0017 9.52548C11.48 9.52548 10.9896 9.32231 10.6194 8.95221C10.46 8.79358 3.66853 2.03793 3.11727 1.48958H20.8862ZM2.19271 13.5944V2.40647L7.81936 8.00347L2.19271 13.5944ZM3.1181 14.5104L8.74253 8.92174L9.69996 9.87413C10.3148 10.489 11.1322 10.8276 12.0017 10.8276C12.8712 10.8276 13.6887 10.489 14.3023 9.87535L15.2609 8.92174L20.8854 14.5104H3.1181ZM21.8108 13.5944L16.1841 8.00347L21.8108 2.40647V13.5944Z" fill="white"/>
</svg>
