<svg width="22" height="22" viewBox="0 0 22 22" fill="none" xmlns="http://www.w3.org/2000/svg">
<path fill-rule="evenodd" clip-rule="evenodd" d="M18.3729 3.60011C16.4239 1.64876 13.8318 0.573654 11.0703 0.57251C5.38008 0.57251 0.749039 5.20342 0.74675 10.8952C0.745987 12.7147 1.2213 14.4908 2.12475 16.0564L0.660156 21.4058L6.13285 19.9702C7.6408 20.7928 9.33846 21.2263 11.0661 21.2268H11.0705C16.7601 21.2268 21.3916 16.5955 21.3938 10.9035C21.3949 8.14494 20.3221 5.55133 18.3729 3.60011ZM11.0703 19.4834H11.0668C9.52717 19.4827 8.01718 19.069 6.69958 18.2873L6.3864 18.1013L3.13882 18.9532L4.00565 15.7869L3.80156 15.4623C2.94262 14.0961 2.48905 12.5171 2.48981 10.8958C2.49159 6.16498 6.34088 2.31608 11.0738 2.31608C13.3656 2.31684 15.5201 3.2105 17.14 4.83238C18.76 6.45426 19.6516 8.61008 19.6509 10.9028C19.6488 15.6341 15.7998 19.4834 11.0703 19.4834ZM15.7769 13.057C15.519 12.9278 14.2508 12.304 14.0143 12.2178C13.778 12.1317 13.6058 12.0888 13.4341 12.347C13.262 12.6051 12.7678 13.1862 12.6172 13.3582C12.4666 13.5304 12.3163 13.552 12.0583 13.4228C11.8003 13.2938 10.9692 13.0213 9.98391 12.1425C9.21716 11.4585 8.6995 10.6138 8.54895 10.3557C8.39865 10.0973 8.54768 9.97116 8.66212 9.82925C8.94135 9.4825 9.22097 9.11896 9.30693 8.94691C9.39301 8.77474 9.34991 8.62406 9.28531 8.495C9.22097 8.36594 8.7051 7.09628 8.4902 6.57964C8.28065 6.07686 8.06817 6.14476 7.90973 6.13688C7.75943 6.12938 7.58739 6.12785 7.41535 6.12785C7.24343 6.12785 6.96394 6.19232 6.72743 6.4507C6.49105 6.70896 5.82475 7.33292 5.82475 8.60257C5.82475 9.87223 6.74905 11.0988 6.87799 11.271C7.00692 11.4431 8.69696 14.0486 11.2845 15.1658C11.8999 15.4318 12.3803 15.5903 12.755 15.7092C13.373 15.9056 13.9352 15.8778 14.3797 15.8115C14.8754 15.7373 15.9057 15.1874 16.1209 14.5849C16.3358 13.9823 16.3358 13.4659 16.2712 13.3582C16.2068 13.2507 16.0348 13.1862 15.7769 13.057Z" fill="white"/>
</svg>
