<svg width="44" height="49" viewBox="0 0 44 49" fill="none" xmlns="http://www.w3.org/2000/svg">
<path d="M0.999781 41L0.499781 41L0.499781 41.5L0.999781 41.5L0.999781 41ZM43.3536 41.3535C43.5488 41.1583 43.5488 40.8417 43.3536 40.6464L40.1716 37.4645C39.9763 37.2692 39.6597 37.2692 39.4645 37.4645C39.2692 37.6597 39.2692 37.9763 39.4645 38.1716L42.2929 41L39.4645 43.8284C39.2692 44.0237 39.2692 44.3403 39.4645 44.5355C39.6597 44.7308 39.9763 44.7308 40.1716 44.5355L43.3536 41.3535ZM0.499783 -1.85775e-06L0.499782 3.41666L1.49978 3.41666L1.49978 -1.81404e-06L0.499783 -1.85775e-06ZM0.499782 10.25L0.499782 17.0833L1.49978 17.0833L1.49978 10.25L0.499782 10.25ZM0.499782 23.9167L0.499781 30.75L1.49978 30.75L1.49978 23.9167L0.499782 23.9167ZM0.499781 37.5833L0.499781 41L1.49978 41L1.49978 37.5833L0.499781 37.5833ZM0.999781 41.5L3.6248 41.5L3.6248 40.5L0.999781 40.5L0.999781 41.5ZM8.87482 41.5L14.1248 41.5L14.1248 40.5L8.87482 40.5L8.87482 41.5ZM19.3749 41.5L24.6249 41.5L24.6249 40.5L19.3749 40.5L19.3749 41.5ZM29.8749 41.5L35.125 41.5L35.125 40.5L29.8749 40.5L29.8749 41.5ZM40.375 41.5L43 41.5L43 40.5L40.375 40.5L40.375 41.5ZM0.999781 41L-0.00021923 41L-0.000219274 42L0.999781 42L0.999781 41ZM43.7071 41.7071C44.0976 41.3166 44.0976 40.6834 43.7071 40.2929L37.3431 33.9289C36.9526 33.5384 36.3195 33.5384 35.9289 33.9289C35.5384 34.3195 35.5384 34.9526 35.9289 35.3431L41.5858 41L35.9289 46.6569C35.5384 47.0474 35.5384 47.6805 35.9289 48.0711C36.3195 48.4616 36.9526 48.4616 37.3431 48.0711L43.7071 41.7071ZM-0.000217438 -1.87961e-06L-0.000217587 3.41666L1.99978 3.41666L1.99978 -1.79218e-06L-0.000217438 -1.87961e-06ZM-0.000217886 10.25L-0.000218184 17.0833L1.99978 17.0833L1.99978 10.25L-0.000217886 10.25ZM-0.000218483 23.9167L-0.000218782 30.75L1.99978 30.75L1.99978 23.9167L-0.000218483 23.9167ZM-0.000219081 37.5833L-0.00021923 41L1.99978 41L1.99978 37.5833L-0.000219081 37.5833ZM0.999781 42L3.6248 42L3.6248 40L0.999781 40L0.999781 42ZM8.87482 42L14.1248 42L14.1248 40L8.87482 40L8.87482 42ZM19.3749 42L24.6249 42L24.6249 40L19.3749 40L19.3749 42ZM29.8749 42L35.125 42L35.125 40L29.8749 40L29.8749 42ZM40.375 42L43 42L43 40L40.375 40L40.375 42Z" fill="#00913B"/>
</svg>
