<svg width="50" height="36" viewBox="0 0 50 36" fill="none" xmlns="http://www.w3.org/2000/svg">
<path d="M45.6055 0.421875H4.39453C1.9665 0.421875 0 2.40059 0 4.81641V31.1836C0 33.6138 1.98096 35.5781 4.39453 35.5781H45.6055C48.0132 35.5781 50 33.6221 50 31.1836V4.81641C50 2.40488 48.0413 0.421875 45.6055 0.421875ZM44.99 3.35156C44.0922 4.24463 28.6409 19.6146 28.1074 20.1452C27.2773 20.9753 26.1738 21.4323 25 21.4323C23.8262 21.4323 22.7227 20.9752 21.8898 20.1425C21.5311 19.7855 6.25029 4.58535 5.00996 3.35156H44.99ZM2.92969 30.5873V5.41455L15.5896 18.0078L2.92969 30.5873ZM5.01182 32.6484L17.6668 20.0739L19.821 22.2168C21.2044 23.6002 23.0437 24.362 25 24.362C26.9563 24.362 28.7956 23.6002 30.1763 22.2195L32.3332 20.0739L44.9882 32.6484H5.01182ZM47.0703 30.5873L34.4104 18.0078L47.0703 5.41455V30.5873Z" fill="white"/>
</svg>
