<svg width="48" height="48" viewBox="0 0 48 48" fill="none" xmlns="http://www.w3.org/2000/svg">
<path fill-rule="evenodd" clip-rule="evenodd" d="M40.5803 7.35018C36.1949 2.95966 30.3628 0.540661 24.1495 0.538086C11.3464 0.538086 0.926548 10.9576 0.921398 23.7642C0.919682 27.858 1.98913 31.8543 4.02189 35.3768L0.726562 47.4131L13.0401 44.183C16.433 46.0338 20.2528 47.0091 24.14 47.0103H24.1498C36.9514 47.0103 47.3724 36.5898 47.3773 23.7828C47.3798 17.576 44.966 11.7404 40.5803 7.35018ZM24.1495 43.0875H24.1415C20.6773 43.0861 17.2799 42.1551 14.3153 40.3964L13.6106 39.9779L6.30355 41.8947L8.25391 34.7705L7.79472 34.0401C5.8621 30.9662 4.84157 27.4134 4.84329 23.7656C4.84729 13.1212 13.5082 4.46112 24.1572 4.46112C29.3139 4.46284 34.1613 6.47356 37.8063 10.1228C41.4512 13.772 43.4574 18.6226 43.4557 23.7813C43.4511 34.4266 34.7908 43.0875 24.1495 43.0875ZM34.7393 28.6282C34.159 28.3375 31.3055 26.9339 30.7733 26.7399C30.2417 26.5462 29.8543 26.4498 29.4678 27.0306C29.0807 27.6114 27.9686 28.9189 27.6299 29.306C27.2912 29.6933 26.953 29.742 26.3725 29.4513C25.792 29.1609 23.922 28.5478 21.705 26.5705C19.9798 25.0316 18.8151 23.131 18.4763 22.5502C18.1382 21.9689 18.4735 21.6851 18.731 21.3658C19.3593 20.5856 19.9884 19.7676 20.1818 19.3805C20.3755 18.9931 20.2785 18.6541 20.1332 18.3637C19.9884 18.0733 18.8277 15.2166 18.3442 14.0541C17.8727 12.9229 17.3946 13.0757 17.0381 13.0579C16.6999 13.041 16.3128 13.0376 15.9257 13.0376C15.5389 13.0376 14.9101 13.1827 14.3779 13.764C13.8461 14.3451 12.3469 15.749 12.3469 18.6057C12.3469 21.4625 14.4266 24.2222 14.7167 24.6096C15.0068 24.997 18.8094 30.8592 24.6313 33.3729C26.016 33.9714 27.0969 34.3282 27.94 34.5957C29.3305 35.0374 30.5954 34.9751 31.5956 34.8257C32.7108 34.6589 35.0291 33.4215 35.5132 32.066C35.9967 30.7101 35.9967 29.5483 35.8513 29.306C35.7066 29.0639 35.3195 28.9189 34.7393 28.6282Z" fill="white"/>
</svg>
